<svg xmlns="http://www.w3.org/2000/svg" width="1120" height="620" viewBox="0 0 1120 620" role="img" aria-labelledby="title desc">
<title id="title">Weekly traffic trend</title>
<desc id="desc">Line chart of weekly visitors and page views.</desc>
<rect width="100%" height="100%" fill="#f7f2e8" rx="28" ry="28"/>
<text x="92" y="54" font-family="PT Sans Narrow, Arial, sans-serif" font-size="32" font-weight="700" fill="#201d1a">Weekly Traffic Trend</text>
<text x="92" y="82" font-family="PT Serif, Georgia, serif" font-size="18" fill="#6c6257">Visitors and page views aggregated by week</text>
<line x1="92" y1="528.00" x2="1078" y2="528.00" stroke="#d9d0c4" stroke-width="1"/>
<text x="78" y="534.00" text-anchor="end" font-family="PT Sans Narrow, Arial, sans-serif" font-size="16" fill="#7b6f62">0</text>
<line x1="92" y1="440.80" x2="1078" y2="440.80" stroke="#d9d0c4" stroke-width="1"/>
<text x="78" y="446.80" text-anchor="end" font-family="PT Sans Narrow, Arial, sans-serif" font-size="16" fill="#7b6f62">16</text>
<line x1="92" y1="353.60" x2="1078" y2="353.60" stroke="#d9d0c4" stroke-width="1"/>
<text x="78" y="359.60" text-anchor="end" font-family="PT Sans Narrow, Arial, sans-serif" font-size="16" fill="#7b6f62">32</text>
<line x1="92" y1="266.40" x2="1078" y2="266.40" stroke="#d9d0c4" stroke-width="1"/>
<text x="78" y="272.40" text-anchor="end" font-family="PT Sans Narrow, Arial, sans-serif" font-size="16" fill="#7b6f62">48</text>
<line x1="92" y1="179.20" x2="1078" y2="179.20" stroke="#d9d0c4" stroke-width="1"/>
<text x="78" y="185.20" text-anchor="end" font-family="PT Sans Narrow, Arial, sans-serif" font-size="16" fill="#7b6f62">64</text>
<line x1="92" y1="92.00" x2="1078" y2="92.00" stroke="#d9d0c4" stroke-width="1"/>
<text x="78" y="98.00" text-anchor="end" font-family="PT Sans Narrow, Arial, sans-serif" font-size="16" fill="#7b6f62">80</text>
<line x1="92" y1="528" x2="1078" y2="528" stroke="#8b7e70" stroke-width="2"/>
<line x1="92" y1="92" x2="92" y2="528" stroke="#8b7e70" stroke-width="2"/>
<text x="92.00" y="586" text-anchor="middle" font-family="PT Sans Narrow, Arial, sans-serif" font-size="15" fill="#7b6f62">2026-02-23</text>
<text x="420.67" y="586" text-anchor="middle" font-family="PT Sans Narrow, Arial, sans-serif" font-size="15" fill="#7b6f62">2026-03-02</text>
<text x="749.33" y="586" text-anchor="middle" font-family="PT Sans Narrow, Arial, sans-serif" font-size="15" fill="#7b6f62">2026-03-09</text>
<text x="1078.00" y="586" text-anchor="middle" font-family="PT Sans Narrow, Arial, sans-serif" font-size="15" fill="#7b6f62">2026-03-16</text>
<polyline fill="none" stroke="#c4682d" stroke-width="4" stroke-linecap="round" stroke-linejoin="round" points="92.00,462.60 420.67,348.15 749.33,288.20 1078.00,397.20"/>
<polyline fill="none" stroke="#2d6a8c" stroke-width="4" stroke-linecap="round" stroke-linejoin="round" points="92.00,419.00 420.67,217.35 749.33,119.25 1078.00,310.00"/>
<circle cx="92.00" cy="462.60" r="4.5" fill="#c4682d" />
<circle cx="92.00" cy="419.00" r="4.5" fill="#2d6a8c" />
<circle cx="420.67" cy="348.15" r="4.5" fill="#c4682d" />
<circle cx="420.67" cy="217.35" r="4.5" fill="#2d6a8c" />
<circle cx="749.33" cy="288.20" r="4.5" fill="#c4682d" />
<circle cx="749.33" cy="119.25" r="4.5" fill="#2d6a8c" />
<circle cx="1078.00" cy="397.20" r="4.5" fill="#c4682d" />
<circle cx="1078.00" cy="310.00" r="4.5" fill="#2d6a8c" />
<circle cx="92" cy="556" r="7" fill="#c4682d"/>
<text x="108" y="562" font-family="PT Sans Narrow, Arial, sans-serif" font-size="18" fill="#201d1a">Visitors</text>
<circle cx="228" cy="556" r="7" fill="#2d6a8c"/>
<text x="244" y="562" font-family="PT Sans Narrow, Arial, sans-serif" font-size="18" fill="#201d1a">Page views</text>
</svg>